# xmcd CD database file
#
# Track frame offsets:
#	150
#	18990
#	41670
#	62587
#	82800
#	101623
#	128308
#	143266
#	163611
#	188688
#	206866
#	231021
#
# Disc length: 3450 seconds
#
# Revision: 0
# Processed by: cddbd v1.5.2PL0 Copyright (c) Steve Scherf et al.
# Submitted via: CDex 1.51
#
DISCID=8b0d780c
DTITLE=Various Artist - Body And Soul: Smooth Jams [CD1]
DYEAR=1900
DGENRE=Blues
TTITLE0=Lionel Richie - Hello
TTITLE1=Stephanie Mills - I Feel Good All Over
TTITLE2=Freddie Jackson - Have You Ever Loved Somebody
TTITLE3=Jermaine Jackson - Do What You Do
TTITLE4=Ready for the World - Tonight
TTITLE5=Teddy Pendergrass - Turn Off the Lights
TTITLE6=Rufus feat. Chaka Khan - Sweet Thing
TTITLE7=The Dramatics - Be My Girl
TTITLE8=Klymaxx - I Miss You
TTITLE9=Rene and Angela - Your Smile
TTITLE10=Johnny Gill - My My My
TTITLE11=The Dells - Stay in My Corner
EXTD=
EXTT0=
EXTT1=
EXTT2=
EXTT3=
EXTT4=
EXTT5=
EXTT6=
EXTT7=
EXTT8=
EXTT9=
EXTT10=
EXTT11=
PLAYORDER=
